<?xml version="1.0" standalone="no"?>
<!DOCTYPE svg PUBLIC "-//W3C//DTD SVG 20010904//EN"
 "http://www.w3.org/TR/2001/REC-SVG-20010904/DTD/svg10.dtd">
<svg version="1.0" xmlns="http://www.w3.org/2000/svg"
 width="500.000000pt" height="500.000000pt" viewBox="0 0 500.000000 500.000000"
 preserveAspectRatio="xMidYMid meet">

<g transform="translate(0.000000,500.000000) scale(0.100000,-0.100000)"
fill="#000000" stroke="none">
<path d="M2152 3185 c-98 -43 -162 -136 -162 -234 l0 -56 -71 3 c-52 3 -88 -2
-137 -18 -111 -36 -133 -52 -170 -119 l-34 -61 -38 20 c-29 15 -59 20 -112 20
-48 0 -81 5 -94 15 -20 14 -22 11 -48 -73 -84 -270 -70 -594 36 -850 94 -228
264 -440 458 -572 73 -49 246 -133 343 -165 189 -63 484 -72 679 -21 378 97
667 332 839 681 54 110 119 315 119 376 0 26 -90 84 -177 114 -39 14 -113 30
-165 37 l-94 12 4 30 c3 21 -10 3 -42 -59 -63 -122 -98 -263 -94 -373 2 -51
-1 -81 -7 -79 -23 8 -15 185 12 287 5 17 -8 7 -42 -35 -55 -69 -74 -87 -87
-79 -5 3 -6 19 -3 34 6 28 6 28 -29 18 -22 -7 -32 -16 -29 -24 3 -8 -2 -26
-12 -40 -12 -18 -23 -24 -43 -22 -22 2 -28 9 -30 36 l-3 32 -45 -31 c-24 -16
-59 -35 -76 -41 l-32 -11 46 -14 c25 -7 51 -20 59 -29 14 -17 19 -118 6 -130
-4 -4 -32 -11 -63 -15 -36 -5 -65 -15 -80 -30 -29 -27 -106 -36 -158 -19 -20
6 -59 27 -86 46 -55 38 -55 38 -39 -36 22 -104 -13 -167 -109 -194 -64 -18
-132 -21 -132 -7 0 6 4 12 9 15 5 3 12 21 15 39 5 29 10 33 30 30 19 -4 25 1
35 27 14 40 7 52 -26 44 -21 -6 -24 -4 -19 12 3 11 10 59 16 109 6 49 13 91
15 93 2 3 11 -3 20 -12 26 -26 44 -19 51 20 5 25 9 32 15 22 7 -10 9 -11 9 0
0 29 30 -17 36 -57 10 -62 23 -49 17 17 -3 33 1 93 11 143 20 107 20 110 -2
77 -25 -39 -91 -108 -102 -108 -6 0 -10 5 -10 10 0 6 -18 -3 -39 -20 -55 -45
-84 -39 -91 17 l-5 43 -49 -38 c-33 -25 -53 -50 -62 -76 -16 -48 -35 -69 -57
-60 -25 9 -21 35 13 74 27 32 43 101 23 100 -5 -1 -30 -33 -58 -71 -50 -72
-80 -98 -96 -82 -4 4 -9 34 -11 67 l-3 58 -44 -60 c-69 -96 -97 -93 -93 9 l3
61 -43 -36 c-29 -25 -51 -36 -68 -34 -22 3 -25 8 -25 41 0 41 -3 43 -31 22
-45 -34 -73 -13 -74 55 l0 25 -20 -25 c-11 -14 -37 -58 -57 -97 -44 -85 -63
-93 -63 -28 0 117 89 365 151 421 36 33 22 -14 -40 -132 -61 -113 -95 -214
-89 -263 3 -23 7 -19 36 34 37 69 79 118 93 110 5 -4 9 -24 9 -45 0 -21 5 -42
10 -45 13 -8 77 31 90 56 20 36 28 19 14 -28 -19 -64 -18 -83 5 -83 36 0 110
98 147 195 51 131 114 222 114 164 0 -21 -58 -141 -97 -200 -15 -23 -30 -68
-39 -119 -13 -78 -12 -100 5 -100 18 0 125 165 151 234 39 100 73 167 98 189
50 46 28 -33 -46 -161 -28 -48 -56 -108 -61 -132 -13 -56 -14 -130 -2 -130 15
0 127 162 135 195 4 17 15 38 23 48 17 18 53 23 53 7 0 -5 -7 -10 -15 -10 -28
0 -45 -42 -38 -98 3 -29 9 -52 13 -52 11 0 93 60 113 82 24 29 32 15 19 -31
-17 -54 -15 -81 4 -81 18 0 82 64 121 122 25 37 48 51 74 46 9 -2 35 39 69
109 39 79 60 113 73 113 24 0 21 -15 -13 -77 -65 -115 -108 -298 -95 -402 8
-56 8 -56 17 -22 5 18 7 35 4 38 -3 3 1 11 8 19 10 10 22 11 45 4 17 -5 31 -6
31 -2 0 4 15 8 33 9 26 2 37 -4 59 -30 29 -35 37 -32 58 22 12 29 11 34 -3 43
-9 5 -17 21 -17 35 l0 26 -22 -19 c-70 -61 -125 -70 -142 -21 -19 52 56 160
99 143 8 -3 15 -14 15 -24 0 -20 -59 -82 -78 -82 -7 0 -12 -9 -12 -19 0 -52
52 -31 145 59 39 39 78 70 87 70 23 0 41 -26 33 -50 -8 -27 -27 -26 -23 2 9
60 -65 -6 -78 -70 -13 -66 62 -52 173 33 75 57 114 73 74 31 -12 -13 -25 -40
-28 -61 -5 -33 -4 -37 13 -33 15 3 19 12 18 39 -1 35 -1 36 56 47 44 9 61 19
79 43 16 22 29 29 43 26 23 -7 66 55 99 142 11 31 25 61 31 68 7 9 7 13 0 13
-5 0 -17 -12 -27 -26 l-17 -26 -141 4 c-164 4 -189 13 -271 97 -51 52 -104 79
-211 106 -93 24 -129 18 -89 -16 18 -15 43 -61 55 -101 6 -24 5 -28 -11 -28
-10 0 -29 -15 -41 -32 -13 -18 -27 -34 -31 -36 -4 -2 -8 -11 -8 -21 0 -10 -16
-35 -36 -57 -20 -21 -34 -34 -30 -27 4 7 -4 6 -24 -3 -16 -9 -30 -22 -30 -30
0 -17 -20 -19 -20 -1 -1 7 -6 5 -14 -5 -7 -10 -19 -18 -25 -18 -7 0 -9 -4 -6
-10 3 -5 4 -10 1 -10 -16 0 -41 78 -56 177 l-17 112 22 38 c13 21 26 62 30 92
5 38 15 62 32 79 25 24 25 26 9 59 -15 32 -15 35 3 61 11 15 25 52 31 83 9 47
19 63 65 109 58 57 70 95 40 120 -8 7 -15 20 -15 30 0 54 -126 130 -215 130
-27 -1 -65 -7 -83 -15z m438 -957 c0 -63 -12 -70 -25 -15 -5 17 -3 27 4 27 6
0 11 11 11 25 0 14 2 25 5 25 3 0 5 -28 5 -62z m-909 -91 c-1 -12 -15 -9 -19
4 -3 6 1 10 8 8 6 -3 11 -8 11 -12z m583 4 c3 -5 -1 -11 -9 -15 -9 -3 -15 0
-15 9 0 16 16 20 24 6z m1114 -47 c3 -24 -50 -84 -74 -84 -18 0 -18 -39 0 -46
23 -9 68 20 136 86 34 33 64 59 65 58 2 -2 -8 -29 -21 -62 -30 -69 -26 -84 7
-27 27 48 56 62 76 35 13 -18 14 -18 48 0 44 24 55 16 19 -13 -31 -25 -72 -28
-80 -6 -9 23 -27 4 -69 -71 -20 -35 -40 -64 -45 -64 -13 0 -13 52 0 86 6 15 9
28 7 31 -2 2 -24 -12 -48 -32 -75 -59 -129 -56 -129 7 0 82 98 174 108 102z"/>
<path d="M3316 2065 c-9 -14 -14 -25 -11 -25 14 0 43 21 49 35 9 25 -20 17
-38 -10z"/>
<path d="M2000 2230 c-6 -11 -8 -20 -6 -20 3 0 10 9 16 20 6 11 8 20 6 20 -3
0 -10 -9 -16 -20z"/>
<path d="M2398 2093 c-18 -21 -41 -63 -34 -63 2 0 19 18 36 40 31 39 29 58 -2
23z"/>
<path d="M3128 2093 c-20 -23 -41 -63 -32 -63 7 0 40 38 55 63 5 9 6 17 1 17
-5 0 -16 -8 -24 -17z"/>
<path d="M2586 2065 c-9 -14 -13 -25 -8 -25 5 0 19 11 32 25 18 19 20 25 8 25
-9 0 -23 -11 -32 -25z"/>
<path d="M2040 1901 c-7 -15 -7 -21 0 -21 12 0 25 28 17 36 -3 3 -10 -4 -17
-15z"/>
</g>
</svg>
